#N canvas 4 4 1920 1016 12;
#X obj 634 117 tgl 19 0 empty empty empty 0 -10 0 12 #fcfcfc #000000 #000000 0 1;
#X obj 634 170 metro;
#X floatatom 666 140 5 0 0 0 - - - 0;
#X obj 634 223 bng 19 250 50 0 empty empty empty 0 -10 0 12 #fcfcfc #000000 #000000;
#X floatatom 634 367 5 0 0 0 - - - 0;
#X obj 720 296 + 1;
#X obj 634 322 % 8;
#X msg 666 98 375;
#X obj 666 57 loadbang;
#X obj 700 434 select 1;
#X obj 634 434 select 0;
#X obj 766 434 select 2;
#X obj 832 434 select 3;
#X obj 898 434 select 4;
#X obj 964 433 select 5;
#X obj 1029 433 select 6;
#X obj 1094 433 select 7;
#X obj 634 465 bng 19 250 50 0 empty empty empty 0 -10 0 12 #fcfcfc #000000 #000000;
#X obj 700 464 bng 19 250 50 0 empty empty empty 0 -10 0 12 #fcfcfc #000000 #000000;
#X obj 766 463 bng 19 250 50 0 empty empty empty 0 -10 0 12 #fcfcfc #000000 #000000;
#X obj 832 463 bng 19 250 50 0 empty empty empty 0 -10 0 12 #fcfcfc #000000 #000000;
#X obj 898 466 bng 19 250 50 0 empty empty empty 0 -10 0 12 #fcfcfc #000000 #000000;
#X obj 964 462 bng 19 250 50 0 empty empty empty 0 -10 0 12 #fcfcfc #000000 #000000;
#X obj 1029 462 bng 19 250 50 0 empty empty empty 0 -10 0 12 #fcfcfc #000000 #000000;
#X obj 1094 462 bng 19 250 50 0 empty empty empty 0 -10 0 12 #fcfcfc #000000 #000000;
#X obj 634 269 int 0;
#X obj 22 702 bng 19 250 50 0 empty empty empty 0 -10 0 12 #fcfcfc #000000 #000000;
#X obj 22 749 spigot;
#X obj 61 701 tgl 19 0 empty empty empty 0 -10 0 12 #fcfcfc #000000 #000000 0 1;
#X obj 375 815 bng 19 250 50 0 empty empty empty 0 -10 0 12 #fcfcfc #000000 #000000;
#X obj 375 861 send Hi-Hat;
#X obj 647 1240 receive Hi-Hat;
#X obj 647 1274 bng 19 250 50 0 empty empty empty 0 -10 0 12 #fcfcfc #000000 #000000;
#X msg 647 1315 open Hi.wav \, 1;
#X obj 647 1363 readsf~;
#X obj 878 1567 dac~;
#X obj 123 702 bng 19 250 50 0 empty empty empty 0 -10 0 12 #fcfcfc #000000 #000000;
#X obj 123 749 spigot;
#X obj 162 701 tgl 19 0 empty empty empty 0 -10 0 12 #fcfcfc #000000 #000000 0 1;
#X obj 224 702 bng 19 250 50 0 empty empty empty 0 -10 0 12 #fcfcfc #000000 #000000;
#X obj 224 749 spigot;
#X obj 263 701 tgl 19 0 empty empty empty 0 -10 0 12 #fcfcfc #000000 #000000 0 1;
#X obj 323 704 bng 19 250 50 0 empty empty empty 0 -10 0 12 #fcfcfc #000000 #000000;
#X obj 323 751 spigot;
#X obj 362 703 tgl 19 0 empty empty empty 0 -10 0 12 #fcfcfc #000000 #000000 0 1;
#X obj 423 703 bng 19 250 50 0 empty empty empty 0 -10 0 12 #fcfcfc #000000 #000000;
#X obj 423 750 spigot;
#X obj 462 702 tgl 19 0 empty empty empty 0 -10 0 12 #fcfcfc #000000 #000000 0 1;
#X obj 524 703 bng 19 250 50 0 empty empty empty 0 -10 0 12 #fcfcfc #000000 #000000;
#X obj 524 750 spigot;
#X obj 563 702 tgl 19 0 empty empty empty 0 -10 0 12 #fcfcfc #000000 #000000 0 1;
#X obj 625 703 bng 19 250 50 0 empty empty empty 0 -10 0 12 #fcfcfc #000000 #000000;
#X obj 625 750 spigot;
#X obj 664 702 tgl 19 0 empty empty empty 0 -10 0 12 #fcfcfc #000000 #000000 0 1;
#X obj 724 705 bng 19 250 50 0 empty empty empty 0 -10 0 12 #fcfcfc #000000 #000000;
#X obj 724 752 spigot;
#X obj 763 704 tgl 19 0 empty empty empty 0 -10 0 12 #fcfcfc #000000 #000000 0 1;
#X obj 634 509 s Zero;
#X obj 700 508 s One;
#X obj 767 508 s Two;
#X obj 832 507 s Three;
#X obj 898 506 s Four;
#X obj 964 505 s Five;
#X obj 1029 505 s Six;
#X obj 1094 504 s Seven;
#X obj 22 660 receive Zero;
#X obj 123 660 receive One;
#X obj 224 660 receive Two;
#X obj 323 662 receive Three;
#X obj 423 661 receive Four;
#X obj 524 661 receive Five;
#X obj 625 661 receive Six;
#X obj 724 663 receive Seven;
#X obj 20 945 bng 19 250 50 0 empty empty empty 0 -10 0 12 #fcfcfc #000000 #000000;
#X obj 20 992 spigot;
#X obj 59 944 tgl 19 0 empty empty empty 0 -10 0 12 #fcfcfc #000000 #000000 0 1;
#X obj 373 1061 bng 19 250 50 0 empty empty empty 0 -10 0 12 #fcfcfc #000000 #000000;
#X obj 121 945 bng 19 250 50 0 empty empty empty 0 -10 0 12 #fcfcfc #000000 #000000;
#X obj 121 992 spigot;
#X obj 160 944 tgl 19 0 empty empty empty 0 -10 0 12 #fcfcfc #000000 #000000 0 1;
#X obj 222 945 bng 19 250 50 0 empty empty empty 0 -10 0 12 #fcfcfc #000000 #000000;
#X obj 222 992 spigot;
#X obj 261 944 tgl 19 0 empty empty empty 0 -10 0 12 #fcfcfc #000000 #000000 0 1;
#X obj 321 947 bng 19 250 50 0 empty empty empty 0 -10 0 12 #fcfcfc #000000 #000000;
#X obj 321 994 spigot;
#X obj 360 946 tgl 19 0 empty empty empty 0 -10 0 12 #fcfcfc #000000 #000000 0 1;
#X obj 421 946 bng 19 250 50 0 empty empty empty 0 -10 0 12 #fcfcfc #000000 #000000;
#X obj 421 993 spigot;
#X obj 460 945 tgl 19 0 empty empty empty 0 -10 0 12 #fcfcfc #000000 #000000 0 1;
#X obj 522 946 bng 19 250 50 0 empty empty empty 0 -10 0 12 #fcfcfc #000000 #000000;
#X obj 522 993 spigot;
#X obj 561 945 tgl 19 0 empty empty empty 0 -10 0 12 #fcfcfc #000000 #000000 0 1;
#X obj 623 946 bng 19 250 50 0 empty empty empty 0 -10 0 12 #fcfcfc #000000 #000000;
#X obj 623 993 spigot;
#X obj 662 945 tgl 19 0 empty empty empty 0 -10 0 12 #fcfcfc #000000 #000000 0 1;
#X obj 722 948 bng 19 250 50 0 empty empty empty 0 -10 0 12 #fcfcfc #000000 #000000;
#X obj 722 995 spigot;
#X obj 761 947 tgl 19 0 empty empty empty 0 -10 0 12 #fcfcfc #000000 #000000 0 1;
#X obj 20 903 receive Zero;
#X obj 121 903 receive One;
#X obj 222 903 receive Two;
#X obj 321 905 receive Three;
#X obj 421 904 receive Four;
#X obj 522 904 receive Five;
#X obj 623 904 receive Six;
#X obj 722 906 receive Seven;
#X obj 373 1097 send Cymbal;
#X obj 947 702 bng 19 250 50 0 empty empty empty 0 -10 0 12 #fcfcfc #000000 #000000;
#X obj 947 749 spigot;
#X obj 986 701 tgl 19 0 empty empty empty 0 -10 0 12 #fcfcfc #000000 #000000 0 1;
#X obj 1299 821 bng 19 250 50 0 empty empty empty 0 -10 0 12 #fcfcfc #000000 #000000;
#X obj 1048 702 bng 19 250 50 0 empty empty empty 0 -10 0 12 #fcfcfc #000000 #000000;
#X obj 1048 749 spigot;
#X obj 1087 701 tgl 19 0 empty empty empty 0 -10 0 12 #fcfcfc #000000 #000000 0 1;
#X obj 1149 702 bng 19 250 50 0 empty empty empty 0 -10 0 12 #fcfcfc #000000 #000000;
#X obj 1149 749 spigot;
#X obj 1188 701 tgl 19 0 empty empty empty 0 -10 0 12 #fcfcfc #000000 #000000 0 1;
#X obj 1248 704 bng 19 250 50 0 empty empty empty 0 -10 0 12 #fcfcfc #000000 #000000;
#X obj 1248 751 spigot;
#X obj 1287 703 tgl 19 0 empty empty empty 0 -10 0 12 #fcfcfc #000000 #000000 0 1;
#X obj 1348 703 bng 19 250 50 0 empty empty empty 0 -10 0 12 #fcfcfc #000000 #000000;
#X obj 1348 750 spigot;
#X obj 1387 702 tgl 19 0 empty empty empty 0 -10 0 12 #fcfcfc #000000 #000000 0 1;
#X obj 1449 703 bng 19 250 50 0 empty empty empty 0 -10 0 12 #fcfcfc #000000 #000000;
#X obj 1449 750 spigot;
#X obj 1488 702 tgl 19 0 empty empty empty 0 -10 0 12 #fcfcfc #000000 #000000 0 1;
#X obj 1550 703 bng 19 250 50 0 empty empty empty 0 -10 0 12 #fcfcfc #000000 #000000;
#X obj 1550 750 spigot;
#X obj 1589 702 tgl 19 0 empty empty empty 0 -10 0 12 #fcfcfc #000000 #000000 0 1;
#X obj 1649 705 bng 19 250 50 0 empty empty empty 0 -10 0 12 #fcfcfc #000000 #000000;
#X obj 1649 752 spigot;
#X obj 1688 704 tgl 19 0 empty empty empty 0 -10 0 12 #fcfcfc #000000 #000000 0 1;
#X obj 947 660 receive Zero;
#X obj 1048 660 receive One;
#X obj 1149 660 receive Two;
#X obj 1248 662 receive Three;
#X obj 1348 661 receive Four;
#X obj 1449 661 receive Five;
#X obj 1550 661 receive Six;
#X obj 1649 663 receive Seven;
#X obj 1299 862 send Snare;
#X text 873 1866 End of file;
#X obj 943 947 bng 19 250 50 0 empty empty empty 0 -10 0 12 #fcfcfc #000000 #000000;
#X obj 943 994 spigot;
#X obj 982 946 tgl 19 0 empty empty empty 0 -10 0 12 #fcfcfc #000000 #000000 0 1;
#X obj 1295 1066 bng 19 250 50 0 empty empty empty 0 -10 0 12 #fcfcfc #000000 #000000;
#X obj 1044 947 bng 19 250 50 0 empty empty empty 0 -10 0 12 #fcfcfc #000000 #000000;
#X obj 1044 994 spigot;
#X obj 1083 946 tgl 19 0 empty empty empty 0 -10 0 12 #fcfcfc #000000 #000000 0 1;
#X obj 1145 947 bng 19 250 50 0 empty empty empty 0 -10 0 12 #fcfcfc #000000 #000000;
#X obj 1145 994 spigot;
#X obj 1184 946 tgl 19 0 empty empty empty 0 -10 0 12 #fcfcfc #000000 #000000 0 1;
#X obj 1244 949 bng 19 250 50 0 empty empty empty 0 -10 0 12 #fcfcfc #000000 #000000;
#X obj 1244 996 spigot;
#X obj 1283 948 tgl 19 0 empty empty empty 0 -10 0 12 #fcfcfc #000000 #000000 0 1;
#X obj 1344 948 bng 19 250 50 0 empty empty empty 0 -10 0 12 #fcfcfc #000000 #000000;
#X obj 1344 995 spigot;
#X obj 1383 947 tgl 19 0 empty empty empty 0 -10 0 12 #fcfcfc #000000 #000000 0 1;
#X obj 1445 948 bng 19 250 50 0 empty empty empty 0 -10 0 12 #fcfcfc #000000 #000000;
#X obj 1445 995 spigot;
#X obj 1484 947 tgl 19 0 empty empty empty 0 -10 0 12 #fcfcfc #000000 #000000 0 1;
#X obj 1546 948 bng 19 250 50 0 empty empty empty 0 -10 0 12 #fcfcfc #000000 #000000;
#X obj 1546 995 spigot;
#X obj 1585 947 tgl 19 0 empty empty empty 0 -10 0 12 #fcfcfc #000000 #000000 0 1;
#X obj 1645 950 bng 19 250 50 0 empty empty empty 0 -10 0 12 #fcfcfc #000000 #000000;
#X obj 1645 997 spigot;
#X obj 1684 949 tgl 19 0 empty empty empty 0 -10 0 12 #fcfcfc #000000 #000000 0 1;
#X obj 943 905 receive Zero;
#X obj 1044 905 receive One;
#X obj 1145 905 receive Two;
#X obj 1244 907 receive Three;
#X obj 1344 906 receive Four;
#X obj 1445 906 receive Five;
#X obj 1546 906 receive Six;
#X obj 1645 908 receive Seven;
#X obj 1295 1107 send Kick;
#X obj 776 1274 bng 19 250 50 0 empty empty empty 0 -10 0 12 #fcfcfc #000000 #000000;
#X obj 776 1363 readsf~;
#X msg 776 1315 open Snare.wav \, 1;
#X obj 776 1240 receive Snare;
#X obj 929 1273 bng 19 250 50 0 empty empty empty 0 -10 0 12 #fcfcfc #000000 #000000;
#X obj 929 1362 readsf~;
#X obj 1095 1269 bng 19 250 50 0 empty empty empty 0 -10 0 12 #fcfcfc #000000 #000000;
#X obj 1095 1358 readsf~;
#X obj 929 1413 *~ 0.5;
#X obj 929 1239 receive Cymbal;
#X obj 1095 1235 receive Kick;
#X msg 929 1314 open Cymbal.wav \, 1;
#X msg 1095 1310 open Kick.wav \, 1;
#X obj 890 1500 *~ 0.5;
#X obj 647 1414 *~ 2;
#X obj 776 1414 *~ 0.3;
#X obj 1095 1409 *~ 2;
#X msg 1166 1511 open actividad_1.wav \, start;
#X msg 1306 1547 stop;
#X obj 1237 1647 writesf~;
#X obj 460 177 sel 0;
#X obj 460 214 bng 19 250 50 0 empty empty empty 0 -10 0 12 #fcfcfc #000000 #000000;
#X obj 366 175 loadbang;
#X msg 460 250 0;
#X text 1404 27 Universidad de Antioquia Electiva 1 - Pure Data Actividad 1 21-04-2025 Daniel Loaiza Restano Basado en los tutoriales de Takumi Ogata https://youtu.be/8Nzaswa5C7g?si=HVafLDQcjTtQJ97F Q Visible https://www.youtube.com/watch?v=3S0zArnj2II;
#X connect 0 0 1 0;
#X connect 0 0 196 0;
#X connect 1 0 3 0;
#X connect 2 0 1 1;
#X connect 3 0 25 0;
#X connect 4 0 9 0;
#X connect 4 0 10 0;
#X connect 4 0 11 0;
#X connect 4 0 12 0;
#X connect 4 0 13 0;
#X connect 4 0 14 0;
#X connect 4 0 15 0;
#X connect 4 0 16 0;
#X connect 5 0 25 1;
#X connect 6 0 4 0;
#X connect 7 0 2 0;
#X connect 8 0 7 0;
#X connect 9 0 18 0;
#X connect 10 0 17 0;
#X connect 11 0 19 0;
#X connect 12 0 20 0;
#X connect 13 0 21 0;
#X connect 14 0 22 0;
#X connect 15 0 23 0;
#X connect 16 0 24 0;
#X connect 17 0 57 0;
#X connect 18 0 58 0;
#X connect 19 0 59 0;
#X connect 20 0 60 0;
#X connect 21 0 61 0;
#X connect 22 0 62 0;
#X connect 23 0 63 0;
#X connect 24 0 64 0;
#X connect 25 0 5 0;
#X connect 25 0 6 0;
#X connect 26 0 27 0;
#X connect 27 0 29 0;
#X connect 28 0 27 1;
#X connect 29 0 30 0;
#X connect 31 0 32 0;
#X connect 32 0 33 0;
#X connect 33 0 34 0;
#X connect 34 0 190 0;
#X connect 36 0 37 0;
#X connect 37 0 29 0;
#X connect 38 0 37 1;
#X connect 39 0 40 0;
#X connect 40 0 29 0;
#X connect 41 0 40 1;
#X connect 42 0 43 0;
#X connect 43 0 29 0;
#X connect 44 0 43 1;
#X connect 45 0 46 0;
#X connect 46 0 29 0;
#X connect 47 0 46 1;
#X connect 48 0 49 0;
#X connect 49 0 29 0;
#X connect 50 0 49 1;
#X connect 51 0 52 0;
#X connect 52 0 29 0;
#X connect 53 0 52 1;
#X connect 54 0 55 0;
#X connect 55 0 29 0;
#X connect 56 0 55 1;
#X connect 65 0 26 0;
#X connect 66 0 36 0;
#X connect 67 0 39 0;
#X connect 68 0 42 0;
#X connect 69 0 45 0;
#X connect 70 0 48 0;
#X connect 71 0 51 0;
#X connect 72 0 54 0;
#X connect 73 0 74 0;
#X connect 74 0 76 0;
#X connect 75 0 74 1;
#X connect 76 0 106 0;
#X connect 77 0 78 0;
#X connect 78 0 76 0;
#X connect 79 0 78 1;
#X connect 80 0 81 0;
#X connect 81 0 76 0;
#X connect 82 0 81 1;
#X connect 83 0 84 0;
#X connect 84 0 76 0;
#X connect 85 0 84 1;
#X connect 86 0 87 0;
#X connect 87 0 76 0;
#X connect 88 0 87 1;
#X connect 89 0 90 0;
#X connect 90 0 76 0;
#X connect 91 0 90 1;
#X connect 92 0 93 0;
#X connect 93 0 76 0;
#X connect 94 0 93 1;
#X connect 95 0 96 0;
#X connect 96 0 76 0;
#X connect 97 0 96 1;
#X connect 98 0 73 0;
#X connect 99 0 77 0;
#X connect 100 0 80 0;
#X connect 101 0 83 0;
#X connect 102 0 86 0;
#X connect 103 0 89 0;
#X connect 104 0 92 0;
#X connect 105 0 95 0;
#X connect 107 0 108 0;
#X connect 108 0 110 0;
#X connect 109 0 108 1;
#X connect 110 0 140 0;
#X connect 111 0 112 0;
#X connect 112 0 110 0;
#X connect 113 0 112 1;
#X connect 114 0 115 0;
#X connect 115 0 110 0;
#X connect 116 0 115 1;
#X connect 117 0 118 0;
#X connect 118 0 110 0;
#X connect 119 0 118 1;
#X connect 120 0 121 0;
#X connect 121 0 110 0;
#X connect 122 0 121 1;
#X connect 123 0 124 0;
#X connect 124 0 110 0;
#X connect 125 0 124 1;
#X connect 126 0 127 0;
#X connect 127 0 110 0;
#X connect 128 0 127 1;
#X connect 129 0 130 0;
#X connect 130 0 110 0;
#X connect 131 0 130 1;
#X connect 132 0 107 0;
#X connect 133 0 111 0;
#X connect 134 0 114 0;
#X connect 135 0 117 0;
#X connect 136 0 120 0;
#X connect 137 0 123 0;
#X connect 138 0 126 0;
#X connect 139 0 129 0;
#X connect 142 0 143 0;
#X connect 143 0 145 0;
#X connect 144 0 143 1;
#X connect 145 0 175 0;
#X connect 146 0 147 0;
#X connect 147 0 145 0;
#X connect 148 0 147 1;
#X connect 149 0 150 0;
#X connect 150 0 145 0;
#X connect 151 0 150 1;
#X connect 152 0 153 0;
#X connect 153 0 145 0;
#X connect 154 0 153 1;
#X connect 155 0 156 0;
#X connect 156 0 145 0;
#X connect 157 0 156 1;
#X connect 158 0 159 0;
#X connect 159 0 145 0;
#X connect 160 0 159 1;
#X connect 161 0 162 0;
#X connect 162 0 145 0;
#X connect 163 0 162 1;
#X connect 164 0 165 0;
#X connect 165 0 145 0;
#X connect 166 0 165 1;
#X connect 167 0 142 0;
#X connect 168 0 146 0;
#X connect 169 0 149 0;
#X connect 170 0 152 0;
#X connect 171 0 155 0;
#X connect 172 0 158 0;
#X connect 173 0 161 0;
#X connect 174 0 164 0;
#X connect 176 0 178 0;
#X connect 177 0 191 0;
#X connect 178 0 177 0;
#X connect 179 0 176 0;
#X connect 180 0 187 0;
#X connect 181 0 184 0;
#X connect 182 0 188 0;
#X connect 183 0 192 0;
#X connect 184 0 189 0;
#X connect 185 0 180 0;
#X connect 186 0 182 0;
#X connect 187 0 181 0;
#X connect 188 0 183 0;
#X connect 189 0 35 0;
#X connect 189 0 35 1;
#X connect 189 0 195 0;
#X connect 190 0 189 0;
#X connect 191 0 189 0;
#X connect 192 0 189 0;
#X connect 193 0 195 0;
#X connect 194 0 195 0;
#X connect 196 0 197 0;
#X connect 197 0 199 0;
#X connect 198 0 197 0;
#X connect 199 0 25 0;
