#N canvas 228 228 1920 1016 12;
#X obj 483 183 bng 19 250 50 0 empty empty empty 0 -10 0 12 #fcfcfc #000000 #000000;
#X msg 558 284 5;
#X floatatom 483 416 5 0 0 0 - - - 0;
#X text 23 22 Universidad de Antioquia Electiva 1 - Pure Data Verificacion 1 21-04-2025 Daniel Loaiza Restano;
#X text 478 121 Solucion de la ecuacion del tipo a*x + b = c \, con a distinto de 0;
#X obj 483 231 t f f f;
#X msg 483 284 4;
#X msg 632 283 2;
#X obj 483 343 expr ($f3 - $f2)/$f1 \;;
#X text 460 285 a;
#X text 541 283 b;
#X text 617 282 c;
#X text 537 415 x;
#X text 29 123 A es a B como X es a Y;
#X obj 52 193 bng 19 250 50 0 empty empty empty 0 -10 0 12 #fcfcfc #000000 #000000;
#X msg 127 294 5;
#X floatatom 52 426 5 0 0 0 - - - 0;
#X obj 52 241 t f f f;
#X msg 52 294 4;
#X msg 201 293 2;
#X text 29 295 B;
#X text 110 293 X;
#X text 186 292 A;
#X text 106 425 Y;
#X obj 52 353 expr ($f1 * $f2)/$f3 \;;
#X text 680 345 Note que x = (c-b)/a;
#X text 234 355 Note que Y = B * X / A;
#X text 27 95 REGLA DE TRES SIMPLE;
#X connect 0 0 5 0;
#X connect 1 0 8 1;
#X connect 5 0 6 0;
#X connect 5 1 1 0;
#X connect 5 2 7 0;
#X connect 6 0 8 0;
#X connect 7 0 8 2;
#X connect 8 0 2 0;
#X connect 14 0 17 0;
#X connect 15 0 24 1;
#X connect 17 0 18 0;
#X connect 17 1 15 0;
#X connect 17 2 19 0;
#X connect 18 0 24 0;
#X connect 19 0 24 2;
#X connect 24 0 16 0;
