#N canvas 16 13 1920 1016 12;
#X obj 82 131 bng 50 250 50 0 empty empty empty 0 -10 0 12 #0400ff #000000 #000000;
#X obj 989 206 random 10;
#X obj 989 250 + 1;
#X obj 885 343 s target_number;
#X obj 690 545 r target_number;
#X obj 214 705 ==;
#X obj 87 770 sel 1;
#X floatatom 383 615 5 0 0 0 - - - 0;
#X obj 383 700 >;
#X obj 384 770 sel 1;
#X obj 672 695 <;
#X obj 878 774 sel 1;
#X obj 422 287 pack symbol symbol symbol;
#X msg 83 324 \; c1 label Elige\ un\ número\ entre\ 1\ y\ 10;
#X msg 422 326 \; c1 color \$1 \$2 \$3;
#X obj 81 49 loadbang;
#X msg 259 285 \; c1 label_font 0 12;
#X msg 468 885 \; c1 label El\ número\ es\ más\ pequeño.\ Intenta\ de\ nuevo!;
#X msg 1058 886 \; c1 label El\ número\ es\ más\ grande.\ Intenta\ de\ nuevo!;
#X obj 989 154 receive inicio;
#X obj 383 550 receive numero;
#X msg 421 210 list #e1e1e1 #000000 #000000, f 24;
#X msg 1145 329 \; c1 label Elige\ un\ número\ entre\ 1\ y\ 10;
#X text 78 17 Estado inicial del juego;
#X text 981 119 Genera un valor aleatorio cuando se inicia el juego;
#X text 86 375 Mensaje del panel de la interfaz de usuario;
#X msg 167 889 \; c1 label El\ número\ es\ correcto!;
#X obj 1156 474 pack symbol symbol symbol;
#X msg 1156 513 \; c1 color \$1 \$2 \$3;
#X msg 1155 397 list #e1e1e1 #000000 #000000, f 24;
#X msg 163 953 \; c1 color #028AOF #FFFFFF #FFFFFF;
#X obj 471 1023 pack symbol symbol symbol;
#X msg 471 1062 \; c1 color \$1 \$2 \$3;
#X msg 470 946 list #e1e1e1 #000000 #000000, f 24;
#X obj 1061 1037 pack symbol symbol symbol;
#X msg 1061 1076 \; c1 color \$1 \$2 \$3;
#X msg 1060 960 list #e1e1e1 #000000 #000000, f 24;
#X connect 0 0 13 0;
#X connect 0 0 21 0;
#X connect 0 0 16 0;
#X connect 1 0 2 0;
#X connect 2 0 3 0;
#X connect 2 0 22 0;
#X connect 2 0 29 0;
#X connect 4 0 5 1;
#X connect 4 0 8 1;
#X connect 4 0 10 1;
#X connect 5 0 6 0;
#X connect 6 0 26 0;
#X connect 6 0 30 0;
#X connect 7 0 5 0;
#X connect 7 0 8 0;
#X connect 7 0 10 0;
#X connect 8 0 9 0;
#X connect 9 0 17 0;
#X connect 9 0 33 0;
#X connect 10 0 11 0;
#X connect 11 0 18 0;
#X connect 11 0 36 0;
#X connect 12 0 14 0;
#X connect 15 0 0 0;
#X connect 19 0 1 0;
#X connect 20 0 7 0;
#X connect 21 0 12 0;
#X connect 27 0 28 0;
#X connect 29 0 27 0;
#X connect 31 0 32 0;
#X connect 33 0 31 0;
#X connect 34 0 35 0;
#X connect 36 0 34 0;
